<svg xmlns="http://www.w3.org/2000/svg" viewBox="0 0 512 512" width="512" height="512" role="img" aria-label="Parchive-Go"><defs><linearGradient id="g" x1="0" y1="0" x2="1" y2="1"><stop offset="0" stop-color="#134D3A"/><stop offset="1" stop-color="#07211A"/></linearGradient><linearGradient id="gg" x1="0" y1="0" x2="0" y2="1"><stop offset="0" stop-color="#8CF0C2"/><stop offset="1" stop-color="#30A46C"/></linearGradient><linearGradient id="cy" x1="0" y1="0" x2="0" y2="1"><stop offset="0" stop-color="#7FE9FA"/><stop offset="1" stop-color="#00ADD8"/></linearGradient></defs><path d="M256 14 L472 88 V282 C472 396 372 470 256 502 C140 470 40 396 40 282 V88 Z" fill="url(#g)" stroke-linejoin="round"/><path d="M256 40 L450 106 V282 C450 380 360 448 256 478 C152 448 62 380 62 282 V106 Z" fill="none" stroke="#5BE7A9" stroke-opacity=".3" stroke-width="3" stroke-linejoin="round"/><rect x="116" y="116" width="84" height="84" rx="20" fill="url(#gg)"/><rect x="214" y="116" width="84" height="84" rx="20" fill="url(#gg)"/><rect x="312" y="116" width="84" height="84" rx="20" fill="url(#gg)"/><rect x="116" y="214" width="84" height="84" rx="20" fill="url(#gg)"/><rect x="312" y="214" width="84" height="84" rx="20" fill="url(#gg)"/><rect x="116" y="312" width="84" height="84" rx="20" fill="url(#gg)"/><rect x="214" y="312" width="84" height="84" rx="20" fill="url(#gg)"/><rect x="214" y="214" width="84" height="84" rx="20" fill="url(#cy)"/><path d="M234 256 l15 16 l29 -32" fill="none" stroke="#062018" stroke-width="12" stroke-linecap="round" stroke-linejoin="round"/><rect x="312" y="312" width="84" height="84" rx="20" fill="none" stroke="#3E8A6E" stroke-width="6" stroke-dasharray="11 9"/></svg>