<svg xmlns="http://www.w3.org/2000/svg" viewBox="0 0 512 512" width="512" height="512" role="img" aria-label="Parchive-Go">
  <defs>
    <linearGradient id="aBg" x1="0" y1="0" x2="1" y2="1">
      <stop offset="0" stop-color="#132434"/><stop offset="1" stop-color="#0a131c"/>
    </linearGradient>
    <linearGradient id="aCy" x1="0" y1="0" x2="0" y2="1">
      <stop offset="0" stop-color="#7FE9FA"/><stop offset="1" stop-color="#00ADD8"/>
    </linearGradient>
  </defs>
  <rect width="512" height="512" rx="112" fill="url(#aBg)"/>
  <rect x="8" y="8" width="496" height="496" rx="106" fill="none" stroke="#00ADD8" stroke-opacity=".22" stroke-width="3"/>
  <g transform="translate(256 256)">
    <g fill="url(#aCy)">
      <g transform="rotate(0)"><rect x="-30" y="-176" width="60" height="46" rx="12"/></g>
      <g transform="rotate(60)"><rect x="-30" y="-176" width="60" height="46" rx="12"/></g>
      <g transform="rotate(120)"><rect x="-30" y="-176" width="60" height="46" rx="12"/></g>
      <g transform="rotate(240)"><rect x="-30" y="-176" width="60" height="46" rx="12"/></g>
      <g transform="rotate(300)"><rect x="-30" y="-176" width="60" height="46" rx="12"/></g>
    </g>
    <g transform="rotate(180)">
      <rect x="-30" y="-176" width="60" height="46" rx="12" fill="#0a131c" stroke="#FFB020" stroke-width="6" stroke-dasharray="9 8"/>
    </g>
    <circle r="84" fill="#0a131c" stroke="#00ADD8" stroke-width="7"/>
    <path d="M-40 0 H40 M0 -40 V40" stroke="#7FE9FA" stroke-width="13" stroke-linecap="round"/>
    <circle r="40" fill="none" stroke="#7FE9FA" stroke-width="13"/>
    <path d="M0 96 V124" stroke="#FFB020" stroke-width="12" stroke-linecap="round"/>
    <path d="M0 146 l-19 -30 h38 z" fill="#FFB020"/>
  </g>
</svg>
