<svg xmlns="http://www.w3.org/2000/svg" viewBox="0 0 512 512" width="512" height="512" role="img" aria-label="Parchive-Go">
  <defs>
    <linearGradient id="dBg" x1="0" y1="0" x2="1" y2="1">
      <stop offset="0" stop-color="#132434"/><stop offset="1" stop-color="#0a131c"/>
    </linearGradient>
    <linearGradient id="dCy" x1="0" y1="0" x2="1" y2="0">
      <stop offset="0" stop-color="#00ADD8"/><stop offset="1" stop-color="#7FE9FA"/>
    </linearGradient>
  </defs>
  <rect width="512" height="512" rx="112" fill="url(#dBg)"/>
  <rect x="8" y="8" width="496" height="496" rx="106" fill="none" stroke="#00ADD8" stroke-opacity=".22" stroke-width="3"/>
  <g fill="url(#dCy)">
    <rect x="74" y="150" width="104" height="38" rx="13"/>
    <rect x="74" y="236" width="104" height="38" rx="13"/>
  </g>
  <rect x="74" y="322" width="104" height="38" rx="13" fill="#0a131c" stroke="#FFB020" stroke-width="6" stroke-dasharray="10 8"/>
  <g stroke="#00ADD8" stroke-opacity=".5" stroke-width="6" fill="none" stroke-linecap="round">
    <path d="M190 169 C240 169 246 232 268 250"/>
    <path d="M190 255 H262"/>
  </g>
  <path d="M190 341 C240 341 246 274 268 258" stroke="#FFB020" stroke-opacity=".65" stroke-width="6" fill="none" stroke-dasharray="10 8" stroke-linecap="round"/>
  <circle cx="332" cy="254" r="96" fill="#0a131c" stroke="#00ADD8" stroke-width="8"/>
  <path d="M287 254 H377 M332 209 V299" stroke="#7FE9FA" stroke-width="15" stroke-linecap="round"/>
  <circle cx="332" cy="254" r="45" fill="none" stroke="#7FE9FA" stroke-width="15"/>
</svg>
